HIERARCHY
ROOT root
{
	OFFSET 0.000000 0.000000 0.000000
	CHANNELS 6 Xposition Yposition Zposition Zrotation Yrotation Xrotation
	JOINT lhip
	{
		OFFSET 0.058581 -0.082280 -0.017664
		CHANNELS 3 Zrotation Yrotation Xrotation
		JOINT lknee
		{
			OFFSET 0.043451 -0.386469 0.008037
			CHANNELS 3 Zrotation Yrotation Xrotation
			JOINT lankle
			{
				OFFSET -0.014790 -0.426874 -0.037428
				CHANNELS 3 Zrotation Yrotation Xrotation
				JOINT ltoe
				{
					OFFSET 0.041054 -0.060286 0.122042
					CHANNELS 3 Zrotation Yrotation Xrotation
					End Site
					{
						OFFSET 0.000000 0.000000 0.000000
					}
				}
			}
		}
	}
	JOINT rhip
	{
		OFFSET -0.060310 -0.090513 -0.013543
		CHANNELS 3 Zrotation Yrotation Xrotation
		JOINT rknee
		{
			OFFSET -0.043257 -0.383688 -0.004843
			CHANNELS 3 Zrotation Yrotation Xrotation
			JOINT rankle
			{
				OFFSET 0.019056 -0.420046 -0.034562
				CHANNELS 3 Zrotation Yrotation Xrotation
				JOINT rtoe
				{
					OFFSET -0.034840 -0.062106 0.130323
					CHANNELS 3 Zrotation Yrotation Xrotation
					End Site
					{
						OFFSET 0.000000 0.000000 0.000000
					}
				}
			}
		}
	}
	JOINT lowerback
	{
		OFFSET 0.004439 0.124404 -0.038385
		CHANNELS 3 Zrotation Yrotation Xrotation
		JOINT upperback
		{
			OFFSET 0.004488 0.137956 0.026820
			CHANNELS 3 Zrotation Yrotation Xrotation
			JOINT chest
			{
				OFFSET -0.002265 0.056032 0.002855
				CHANNELS 3 Zrotation Yrotation Xrotation
				JOINT lowerneck
				{
					OFFSET -0.013390 0.211636 -0.033468
					CHANNELS 3 Zrotation Yrotation Xrotation
					JOINT upperneck
					{
						OFFSET 0.010113 0.088937 0.050410
						CHANNELS 3 Zrotation Yrotation Xrotation
						End Site
						{
							OFFSET 0.000000 0.000000 0.000000
						}
					}
				}
				JOINT lclavicle
				{
					OFFSET 0.071702 0.114000 -0.018898
					CHANNELS 3 Zrotation Yrotation Xrotation
					JOINT lshoulder
					{
						OFFSET 0.122921 0.045205 -0.019046
						CHANNELS 3 Zrotation Yrotation Xrotation
						JOINT lelbow
						{
							OFFSET 0.255332 -0.015649 -0.022946
							CHANNELS 3 Zrotation Yrotation Xrotation
							JOINT lwrist
							{
								OFFSET 0.265709 0.012698 -0.007375
								CHANNELS 3 Zrotation Yrotation Xrotation
								End Site
								{
									OFFSET 0.000000 0.000000 0.000000
								}
							}
						}
					}
				}
				JOINT rclavicle
				{
					OFFSET -0.082954 0.112472 -0.023707
					CHANNELS 3 Zrotation Yrotation Xrotation
					JOINT rshoulder
					{
						OFFSET -0.113228 0.046853 -0.008472
						CHANNELS 3 Zrotation Yrotation Xrotation
						JOINT relbow
						{
							OFFSET -0.260127 -0.014369 -0.031269
							CHANNELS 3 Zrotation Yrotation Xrotation
							JOINT rwrist
							{
								OFFSET -0.269108 0.006794 -0.006027
								CHANNELS 3 Zrotation Yrotation Xrotation
								End Site
								{
									OFFSET 0.000000 0.000000 0.000000
								}
							}
						}
					}
				}
			}
		}
	}
}
MOTION
Frames: 5
Frame Time: 0.033333
-0.002029 0.690873 0.513416 -179.373348 0.772083 131.579255 19.253064 8.696435 -24.598069 -9.056580 8.744485 93.357253 -3.691101 -2.108476 19.410406 0.000000 -0.000000 0.000000 2.393423 6.543002 -36.522541 10.983695 -4.017291 101.474691 -1.695795 2.545345 6.695676 0.000000 -0.000000 0.000000 -2.809888 1.090329 52.381149 -5.845539 -0.133465 -5.072937 -2.685252 4.129044 -6.033077 -11.104360 -9.210666 -13.588284 14.015666 -5.310409 -11.882859 -1.015149 -45.169427 -13.429257 -24.372646 -22.464297 7.412414 15.210104 -37.027886 2.564105 48.716144 -34.411134 11.796643 -5.617264 41.489829 -9.778416 13.766001 11.549906 -12.428055 -30.250172 54.631562 -16.253387 -28.890775 20.926452 4.913628 
0.006473 0.703139 0.513474 -179.390224 0.585819 130.866587 21.240227 10.000740 -28.527188 -8.620437 10.034517 98.327122 -4.315984 -3.061425 19.637038 0.000000 -0.000000 0.000000 4.713600 6.242625 -33.462263 11.549967 -2.441121 99.156049 -1.284722 2.193391 6.540117 0.000000 -0.000000 0.000000 -3.373358 3.463022 54.327460 -6.411516 0.229512 -5.406191 -2.081710 4.252270 -5.727726 -11.046351 -10.146243 -10.836478 15.294549 -4.050778 -13.732320 0.398312 -46.375730 -13.591896 -23.807214 -23.192541 7.551752 14.840308 -37.542117 3.224324 50.018489 -33.850643 10.612569 -9.584396 41.948705 -12.486608 11.810428 10.488601 -15.062068 -29.382680 45.570002 -19.449205 -29.337467 18.197332 3.031817 
0.014659 0.714544 0.511053 -179.593341 0.367610 130.878081 22.495490 10.646611 -33.813806 -8.183753 11.233517 103.459302 -4.385531 -4.172823 18.573896 0.000000 -0.000000 0.000000 6.312842 6.096338 -31.601964 11.743846 -0.975000 97.144550 -0.328727 2.070744 6.376027 0.000000 -0.000000 0.000000 -3.687657 5.932820 55.279949 -6.809793 0.508273 -5.836512 -1.646054 4.497883 -5.230473 -11.185507 -10.820231 -8.965815 16.180209 -3.678901 -15.120511 1.979365 -47.349989 -13.978609 -23.549191 -24.276247 8.049023 13.983302 -37.644126 3.786871 50.934476 -33.943509 10.011961 -12.567610 42.158624 -14.251174 9.996286 9.178861 -16.355226 -27.006760 37.470780 -19.154396 -28.664434 17.412626 3.803208 
0.022539 0.726888 0.507894 -179.812771 0.158242 131.021342 23.100180 10.476850 -39.521913 -7.844882 12.158942 108.003658 -4.305384 -5.147176 17.711403 0.000000 -0.000000 0.000000 7.425258 5.961436 -29.882221 12.256921 0.454086 95.321846 1.473560 2.668281 6.653130 0.000000 -0.000000 0.000000 -3.595538 7.889881 56.181846 -7.149220 0.641692 -5.998025 -1.696794 4.954366 -4.927247 -11.561279 -11.410931 -8.405599 17.061553 -4.353070 -16.083816 3.127409 -47.943792 -14.709550 -23.318517 -25.321038 8.781919 12.883136 -38.031491 4.465540 51.759767 -34.572000 10.070392 -14.058625 41.895971 -14.846683 8.699689 7.082289 -15.945521 -25.604835 33.734694 -17.063152 -29.024169 17.893023 5.751511 
0.030545 0.740246 0.504333 179.856375 0.200212 130.994150 23.568810 9.742673 -44.775013 -7.469923 12.887974 111.576538 -4.882940 -6.231372 17.738576 0.000000 -0.000000 0.000000 8.459469 6.087457 -27.758972 12.649195 2.131402 94.000537 3.503422 3.622291 7.361713 0.000000 -0.000000 0.000000 -3.536185 9.481893 56.869026 -7.244100 0.413119 -5.726807 -2.051020 5.349983 -4.903832 -11.697061 -11.285429 -8.015787 17.942654 -5.320811 -16.957392 3.512747 -47.901670 -15.122904 -23.145568 -25.511145 9.184152 12.216348 -39.175310 5.224167 51.911519 -34.945323 10.599740 -14.109537 40.908784 -14.696264 9.927488 5.289218 -14.779187 -28.332202 35.511456 -18.376983 -30.763634 17.897312 4.771347 
